<svg width="192" height="192" viewBox="0 0 192 192" fill="none" xmlns="http://www.w3.org/2000/svg">
  <!-- Background circle -->
  <circle cx="96" cy="96" r="96" fill="#f97316"/>
  
  <!-- Chef hat -->
  <path d="M96 40c-8 0-15 3-20 8-3-2-7-3-11-3-12 0-22 10-22 22 0 2 0 4 1 6-6 4-10 11-10 19 0 13 11 24 24 24h76c13 0 24-11 24-24 0-8-4-15-10-19 1-2 1-4 1-6 0-12-10-22-22-22-4 0-8 1-11 3-5-5-12-8-20-8z" fill="white"/>
  
  <!-- Chef hat details -->
  <ellipse cx="96" cy="92" rx="38" ry="8" fill="#f97316" opacity="0.3"/>
  <ellipse cx="96" cy="88" rx="35" ry="6" fill="#f97316" opacity="0.2"/>
  
  <!-- Cooking utensils -->
  <g transform="translate(60, 110)">
    <!-- Spoon -->
    <path d="M8 0c-4 0-8 4-8 8s4 8 8 8c1 0 2 0 3-1v25c0 2 2 4 4 4s4-2 4-4V15c1 1 2 1 3 1 4 0 8-4 8-8s-4-8-8-8H8z" fill="white"/>
  </g>
  
  <g transform="translate(104, 110)">
    <!-- Fork -->
    <rect x="10" y="0" width="2" height="16" fill="white"/>
    <rect x="14" y="0" width="2" height="16" fill="white"/>
    <rect x="18" y="0" width="2" height="16" fill="white"/>
    <rect x="8" y="16" width="14" height="24" rx="2" fill="white"/>
  </g>
  
  <!-- Decorative elements -->
  <circle cx="70" cy="130" r="3" fill="white" opacity="0.7"/>
  <circle cx="122" cy="135" r="2" fill="white" opacity="0.7"/>
  <circle cx="85" cy="145" r="2" fill="white" opacity="0.5"/>
  <circle cx="107" cy="150" r="1.5" fill="white" opacity="0.5"/>
</svg>