<svg width="72" height="72" viewBox="0 0 72 72" fill="none" xmlns="http://www.w3.org/2000/svg">
  <!-- Background circle -->
  <circle cx="36" cy="36" r="36" fill="#f97316"/>
  
  <!-- Chef hat simplified -->
  <path d="M36 15c-3 0-6 1-8 3-1-1-3-1-4-1-5 0-8 4-8 8 0 1 0 2 1 3-2 1-4 4-4 7 0 5 4 9 9 9h28c5 0 9-4 9-9 0-3-2-6-4-7 1-1 1-2 1-3 0-4-3-8-8-8-1 0-3 0-4 1-2-2-5-3-8-3z" fill="white"/>
  
  <!-- Simple utensils -->
  <g transform="translate(24, 42)">
    <!-- Spoon -->
    <circle cx="3" cy="3" r="3" fill="white"/>
    <rect x="2" y="6" width="2" height="8" fill="white"/>
  </g>
  
  <g transform="translate(42, 42)">
    <!-- Fork -->
    <rect x="1" y="0" width="1" height="6" fill="white"/>
    <rect x="3" y="0" width="1" height="6" fill="white"/>
    <rect x="5" y="0" width="1" height="6" fill="white"/>
    <rect x="0" y="6" width="7" height="8" rx="1" fill="white"/>
  </g>
  
  <!-- Small decorative dots -->
  <circle cx="28" cy="50" r="1" fill="white" opacity="0.7"/>
  <circle cx="44" cy="52" r="1" fill="white" opacity="0.5"/>
</svg>